<svg width="1200" height="630" viewBox="0 0 1200 630" fill="none" xmlns="http://www.w3.org/2000/svg">
  <!-- Background -->
  <rect width="1200" height="630" fill="#2D5A3D"/>

  <!-- Leaf Icon (scaled from favicon, centered at x=600) -->
  <g transform="translate(600, 195) scale(10)">
    <path d="M0 -12C0 -12 -7 -7 -7 0C-7 3.5 -5 7 -1.5 9C-1.5 5.5 0 2 0 -1.5C0 2 1.5 5.5 1.5 9C5 7 7 3.5 7 0C7 -7 0 -12 0 -12Z" fill="white" fill-opacity="0.9"/>
    <path d="M0 -1.5C0 2 -1.5 5.5 -1.5 9C-1.5 11 -0.75 12.5 0 12.5C0.75 12.5 1.5 11 1.5 9C1.5 5.5 0 2 0 -1.5Z" fill="white" fill-opacity="0.6"/>
  </g>

  <!-- Text -->
  <text x="600" y="420" text-anchor="middle" font-family="Georgia, serif" font-size="72" font-weight="700" fill="white">LandscapeCalc</text>
  <text x="600" y="490" text-anchor="middle" font-family="sans-serif" font-size="32" fill="white" fill-opacity="0.9">Landscape Materials Calculator for Australia</text>

  <!-- Domain -->
  <text x="600" y="560" text-anchor="middle" font-family="sans-serif" font-size="24" fill="white" fill-opacity="0.7">landscapecalc.com.au</text>
</svg>
